sfk_cyclingleg_states
version=1
nRows=13
nColumns=53
inDegrees=yes

# SIMM Motion File Header:
name sfk_cyclingleg_states
datacolumns 53
datarows 13
otherdata 1
range 0.24031931 0.24894013
endheader
time	/jointset/bb/crank_angle/value	/jointset/bb/crank_angle/speed	/jointset/spindle/pedal_angle_r/value	/jointset/spindle/pedal_angle_r/speed	/jointset/ground_pelvis/pelvis_tilt/value	/jointset/ground_pelvis/pelvis_tilt/speed	/jointset/ground_pelvis/pelvis_list/value	/jointset/ground_pelvis/pelvis_list/speed	/jointset/ground_pelvis/pelvis_rotation/value	/jointset/ground_pelvis/pelvis_rotation/speed	/jointset/ground_pelvis/pelvis_tx/value	/jointset/ground_pelvis/pelvis_tx/speed	/jointset/ground_pelvis/pelvis_ty/value	/jointset/ground_pelvis/pelvis_ty/speed	/jointset/ground_pelvis/pelvis_tz/value	/jointset/ground_pelvis/pelvis_tz/speed	/jointset/hip_r/hip_angle_r/value	/jointset/hip_r/hip_angle_r/speed	/jointset/hip_r/hip_adduction_r/value	/jointset/hip_r/hip_adduction_r/speed	/jointset/hip_r/hip_rotation_r/value	/jointset/hip_r/hip_rotation_r/speed	/jointset/knee_r/knee_angle_r/value	/jointset/knee_r/knee_angle_r/speed	/jointset/knee_r/tib_tx_r/value	/jointset/knee_r/tib_tx_r/speed	/jointset/knee_r/tib_ty_r/value	/jointset/knee_r/tib_ty_r/speed	/jointset/tib_pat_r/pat_angle_r/value	/jointset/tib_pat_r/pat_angle_r/speed	/jointset/tib_pat_r/pat_tx_r/value	/jointset/tib_pat_r/pat_tx_r/speed	/jointset/tib_pat_r/pat_ty_r/value	/jointset/tib_pat_r/pat_ty_r/speed	/jointset/ankle_r/ankle_angle_r/value	/jointset/ankle_r/ankle_angle_r/speed	/jointset/subtalar_r/subtalar_angle_r/value	/jointset/subtalar_r/subtalar_angle_r/speed	/jointset/mtp_r/mtp_angle_r/value	/jointset/mtp_r/mtp_angle_r/speed	/forceset/bifemlh_r/activation	/forceset/bifemlh_r/fiber_length	/forceset/bifemsh_r/activation	/forceset/bifemsh_r/fiber_length	/forceset/glut_max2_r/activation	/forceset/glut_max2_r/fiber_length	/forceset/vas_int_r/activation	/forceset/vas_int_r/fiber_length	/forceset/med_gas_r/activation	/forceset/med_gas_r/fiber_length	/forceset/tib_ant_r/activation	/forceset/tib_ant_r/fiber_length
      0.24031931	   -125.52146157	   -480.13863232	    138.14224369	    551.23498108	      0.00000000	      0.00000000	     -0.00000000	      0.00000000	     -0.00000000	     -0.00000000	     -0.00000000	     -0.00000000	     -0.00000000	     -0.00000000	     -0.00000000	     -0.00000000	     46.51002536	   -218.11993760	      4.38217156	     -0.28791189	      1.09549623	     22.37773644	    -55.83412364	    263.11517789	      0.00447807	     -0.02437527	     -0.47471281	      0.07740394	     17.29354838	     -7.75329182	      0.04403122	      0.07576029	     -0.02307798	     -0.00980688	     22.35826465	     25.74581223	      0.00000000	      0.00000000	     -0.00000000	     -0.00000000	     -0.00549901	      0.12751068	     -0.00549901	      0.16848727	     -0.00549901	      0.13576275	     -0.00549901	      0.12659885	      0.05000000	      0.10000000	      0.05000000	      0.10000000
      0.24141671	   -126.04836616	   -480.13863232	    138.74694188	    550.81709742	      0.00000000	      0.00000000	     -0.00000000	      0.00000000	     -0.00000000	     -0.00000000	     -0.00000000	     -0.00000000	     -0.00000000	     -0.00000000	     -0.00000000	     -0.00000000	     46.27084447	   -217.78030703	      4.38184743	     -0.30275991	      1.12003864	     22.35007223	    -55.54604528	    261.89799181	      0.00445115	     -0.02467983	     -0.47462819	      0.07682212	     17.28496091	     -7.89701974	      0.04411408	      0.07525410	     -0.02308872	     -0.00977673	     22.38677654	     26.21580352	      0.00000000	      0.00000000	     -0.00000000	     -0.00000000	     -0.00564030	      0.12741337	     -0.00564030	      0.16864560	     -0.00564030	      0.13558962	     -0.00564030	      0.12638646	      0.05000000	      0.10000000	      0.05000000	      0.10000000
      0.24199426	   -126.32566939	   -480.13863232	    139.06499990	    550.58962089	      0.00000000	      0.00000000	     -0.00000000	      0.00000000	     -0.00000000	     -0.00000000	     -0.00000000	     -0.00000000	     -0.00000000	     -0.00000000	     -0.00000000	     -0.00000000	     46.14511996	   -217.59173653	      4.38167034	     -0.31046487	      1.13294241	     22.33445788	    -55.39497537	    261.24240266	      0.00443685	     -0.02483405	     -0.47458391	      0.07651206	     17.28037831	     -7.97204807	      0.04415747	      0.07498410	     -0.02309436	     -0.00976045	     22.40198825	     26.46077129	      0.00000000	      0.00000000	     -0.00000000	     -0.00000000	     -0.00571466	      0.12736192	     -0.00571466	      0.16876552	     -0.00571466	      0.13549842	     -0.00571466	      0.12627489	      0.05000000	      0.10000000	      0.05000000	      0.10000000
      0.24270715	   -126.66795942	   -480.13863232	    139.45741208	    550.30139237	      0.00000000	      0.00000000	     -0.00000000	      0.00000000	     -0.00000000	      0.00000000	     -0.00000000	     -0.00000000	     -0.00000000	     -0.00000000	     -0.00000000	     -0.00000000	     45.99008490	   -217.34945873	      4.38144566	     -0.31986872	      1.14885743	     22.31413897	    -55.20902877	    260.41859496	      0.00441908	     -0.02501860	     -0.47452950	      0.07612562	     17.27466222	     -8.06402404	      0.04421081	      0.07464736	     -0.02310131	     -0.00973995	     22.42095919	     26.76076396	      0.00000000	      0.00000000	     -0.00000000	     -0.00000000	     -0.00580645	      0.12729819	     -0.00580645	      0.16884046	     -0.00580645	      0.13538578	     -0.00580645	      0.12613710	      0.05000000	      0.10000000	      0.05000000	      0.10000000
      0.24334828	   -126.97578929	   -480.13863232	    139.81014015	    550.03495187	      0.00000000	      0.00000000	     -0.00000000	      0.00000000	     -0.00000000	      0.00000000	     -0.00000000	     -0.00000000	     -0.00000000	     -0.00000000	     -0.00000000	     -0.00000000	     45.85080858	   -217.12246008	      4.38123790	     -0.32822289	      1.16315750	     22.29484618	    -55.04230864	    259.66371969	      0.00440299	     -0.02517906	     -0.47448081	      0.07577454	     17.26946582	     -8.14610025	      0.04425857	      0.07434120	     -0.02310755	     -0.00972110	     22.43820209	     27.02821155	      0.00000000	      0.00000000	     -0.00000000	     -0.00000000	     -0.00588899	      0.12724069	     -0.00588899	      0.16897003	     -0.00588899	      0.13528442	     -0.00588899	      0.12601079	      0.05000000	      0.10000000	      0.05000000	      0.10000000
      0.24413283	   -127.35248169	   -480.13863232	    140.24153869	    549.69928959	      0.00000000	      0.00000000	     -0.00000000	      0.00000000	     -0.00000000	     -0.00000000	     -0.00000000	     -0.00000000	     -0.00000000	     -0.00000000	     -0.00000000	     -0.00000000	     45.68057810	   -216.83274516	      4.38097642	     -0.33831010	      1.18063921	     22.26987528	    -54.83895790	    258.72157050	      0.00438316	     -0.02536825	     -0.47442153	      0.07534030	     17.26303568	     -8.24565363	      0.04431674	      0.07396217	     -0.02311517	     -0.00969750	     22.45953443	     27.35233092	      0.00000000	      0.00000000	     -0.00000000	     -0.00000000	     -0.00599000	      0.12717011	     -0.00599000	      0.16905184	     -0.00599000	      0.13516030	     -0.00599000	      0.12585414	      0.05000000	      0.10000000	      0.05000000	      0.10000000
      0.24473987	   -127.64394676	   -480.13863232	    140.57514935	    549.43208341	      0.00000000	      0.00000000	     -0.00000000	      0.00000000	     -0.00000000	     -0.00000000	     -0.00000000	     -0.00000000	     -0.00000000	     -0.00000000	     -0.00000000	     -0.00000000	     45.54902159	   -216.59942029	      4.38076871	     -0.34601016	      1.19415185	     22.24948922	    -54.68212757	    257.97841717	      0.00436772	     -0.02550920	     -0.47437589	      0.07500078	     17.25800701	     -8.32197240	      0.04436155	      0.07366555	     -0.02312105	     -0.00967882	     22.47621396	     27.60063080	      0.00000000	      0.00000000	     -0.00000000	     -0.00000000	     -0.00606816	      0.12711534	     -0.00606816	      0.16917715	     -0.00606816	      0.13506422	     -0.00606816	      0.12573247	      0.05000000	      0.10000000	      0.05000000	      0.10000000
      0.24547890	   -127.99878093	   -480.13863232	    140.98107012	    549.09768008	      0.00000000	      0.00000000	     -0.00000000	      0.00000000	     -0.00000000	      0.00000000	     -0.00000000	     -0.00000000	     -0.00000000	     -0.00000000	     -0.00000000	     -0.00000000	     45.38905760	   -216.30439972	      4.38050958	     -0.35525789	      1.21058521	     22.22337114	    -54.49181466	    257.05667085	      0.00434881	     -0.02567435	     -0.47432062	      0.07458323	     17.25182281	     -8.41399299	      0.04441586	      0.07330041	     -0.02312820	     -0.00965555	     22.49672228	     27.89985564	      0.00000000	      0.00000000	     -0.00000000	     -0.00000000	     -0.00616331	      0.12704847	     -0.00616331	      0.16925234	     -0.00616331	      0.13494719	     -0.00616331	      0.12558434	      0.05000000	      0.10000000	      0.05000000	      0.10000000
      0.24611783	   -128.30555711	   -480.13863232	    141.33181188	    548.80027044	      0.00000000	      0.00000000	     -0.00000000	      0.00000000	     -0.00000000	      0.00000000	     -0.00000000	     -0.00000000	     -0.00000000	     -0.00000000	     -0.00000000	     -0.00000000	     45.25093783	   -216.03947534	      4.38028007	     -0.36313875	      1.22477691	     22.19960114	    -54.32783152	    256.24441587	      0.00433236	     -0.02581138	     -0.47427308	      0.07421846	     17.24642164	     -8.49271598	      0.04446259	      0.07298111	     -0.02313436	     -0.00963496	     22.51463029	     28.15573488	      0.00000000	      0.00000000	     -0.00000000	     -0.00000000	     -0.00624557	      0.12699052	     -0.00624557	      0.16937877	     -0.00624557	      0.13484598	     -0.00624557	      0.12545642	      0.05000000	      0.10000000	      0.05000000	      0.10000000
      0.24690951	   -128.68567456	   -480.13863232	    141.76613814	    548.42073614	      0.00000000	      0.00000000	     -0.00000000	      0.00000000	     -0.00000000	      0.00000000	     -0.00000000	     -0.00000000	     -0.00000000	     -0.00000000	     -0.00000000	     -0.00000000	     45.08003721	   -215.69830735	      4.37998876	     -0.37275302	      1.24233978	     22.16856207	    -54.12537213	    255.21781967	      0.00431186	     -0.02597373	     -0.47421451	      0.07376159	     17.23965986	     -8.58911990	      0.04452021	      0.07258074	     -0.02314198	     -0.00960881	     22.53704499	     28.46899852	      0.00000000	      0.00000000	     -0.00000000	     -0.00000000	     -0.00634750	      0.12691852	     -0.00634750	      0.16946264	     -0.00634750	      0.13472052	     -0.00634750	      0.12529823	      0.05000000	      0.10000000	      0.05000000	      0.10000000
      0.24753593	   -128.98644231	   -480.13863232	    142.10958264	    548.11151742	      0.00000000	      0.00000000	     -0.00000000	      0.00000000	     -0.00000000	      0.00000000	     -0.00000000	     -0.00000000	     -0.00000000	     -0.00000000	     -0.00000000	     -0.00000000	     44.94500708	   -215.41806428	      4.37975291	     -0.38023944	      1.25621854	     22.14271497	    -53.96575766	    254.38940485	      0.00429555	     -0.02609631	     -0.47416842	      0.07339619	     17.23425584	     -8.66445568	      0.04456557	      0.07226016	     -0.02314799	     -0.00958760	     22.55495531	     28.71377175	      0.00000000	      0.00000000	     -0.00000000	     -0.00000000	     -0.00642815	      0.12686142	     -0.00642815	      0.16958966	     -0.00642815	      0.13462121	     -0.00642815	      0.12517333	      0.05000000	      0.10000000	      0.05000000	      0.10000000
      0.24829855	   -129.35260481	   -480.13863232	    142.52743555	    547.72409136	      0.00000000	      0.00000000	     -0.00000000	      0.00000000	     -0.00000000	      0.00000000	     -0.00000000	     -0.00000000	     -0.00000000	     -0.00000000	     -0.00000000	     -0.00000000	     44.78085931	   -215.06439286	      4.37945950	     -0.38920602	      1.27309249	     22.10965642	    -53.77214632	    253.36124096	      0.00427559	     -0.02623849	     -0.47411261	      0.07294663	     17.22761356	     -8.75498132	      0.04462053	      0.07186527	     -0.02315529	     -0.00956114	     22.57696538	     29.00790949	      0.00000000	      0.00000000	     -0.00000000	     -0.00000000	     -0.00652634	      0.12679174	     -0.00652634	      0.16966669	     -0.00652634	      0.13450030	     -0.00652634	      0.12502163	      0.05000000	      0.10000000	      0.05000000	      0.10000000
      0.24894013	   -129.66065325	   -480.13863232	    142.87873846	    547.38853701	      0.00000000	      0.00000000	     -0.00000000	      0.00000000	     -0.00000000	      0.00000000	     -0.00000000	     -0.00000000	     -0.00000000	     -0.00000000	     -0.00000000	     -0.00000000	     44.64297619	   -214.75604585	      4.37920741	     -0.39662118	      1.28726835	     22.08044503	    -53.60987634	    252.47923330	      0.00425872	     -0.02635205	     -0.47406593	      0.07256436	     17.22197238	     -8.83007504	      0.04466653	      0.07152908	     -0.02316142	     -0.00953832	     22.59565480	     29.25195170	      0.00000000	      0.00000000	     -0.00000000	     -0.00000000	     -0.00660894	      0.12673299	     -0.00660894	      0.16979188	     -0.00660894	      0.13439855	     -0.00660894	      0.12489431	      0.05000000	      0.10000000	      0.05000000	      0.10000000
